{"title":"Death of a Superhero 2011 DVDRiP XViD AC3-ART3MiS ","uid":7249287,"size":1281062274,"categoryP":"video","categoryS":"movies","magnet":"?xt=urn:btih:0ad90b2df32e066bfc007435ba707156c08a3c8f&amp;dn=Death+of+a+Superhero+2011+DVDRiP+XViD+AC3-ART3MiS+&amp;tr=udp%3A%2F%2Ftracker.openbittorrent.com%3A80&amp;tr=udp%3A%2F%2Fopen.demonii.com%3A1337&amp;tr=udp%3A%2F%2Ftracker.coppersurfer.tk%3A6969&amp;tr=udp%3A%2F%2Fexodus.desync.com%3A6969","seeders":1,"leechers":0,"uploader":"HeroMaster","files":-1,"time":1336404679,"description":"Death of a Superhero 2011 DVDRiP XViD AC3-ART3MiS \n\n &lt;a href=&quot;\nhttp://www.imdb.com/title/tt1384927/&quot; rel=&quot;nofollow&quot; target=&quot;_NEW&quot;&gt;\nhttp://www.imdb.com/title/tt1384927/&lt;/a&gt;\n\n\nComplete name : Death of a Superhero 2011 DVDRiP.XViD.AC3-ART3MiS.avi\nFormat : AVI\nFormat/Info : Audio Video Interleave\nFile size : 1.19 GiB\nDuration : 1h 32mn\nOverall bit rate : 1 837 Kbps\nWriting application : Nandub v1.0rc2\nWriting library : VirtualDub build 32842/release\n\nVideo\nID : 0\nFormat : MPEG-4 Visual\nFormat profile : Advanced Simple@L5\nFormat settings, BVOP : 2\nFormat settings, QPel : Yes\nFormat settings, GMC : No warppoints\nFormat settings, Matrix : Default (H.263)\nMuxing mode : Packed bitstream\nCodec ID : XVID\nCodec ID/Hint : XviD\nDuration : 1h 32mn\nBit rate : 1 699 Kbps\nWidth : 720 pixels\nHeight : 384 pixels\nDisplay aspect ratio : 1.875\nFrame rate : 25.000 fps\nColor space : YUV\nChroma subsampling : 4:2:0\nBit depth : 8 bits\nScan type : Progressive\nCompression mode : Lossy\nBits/(Pixel*Frame) : 0.246\nStream size : 1.10 GiB (93%)\nWriting library : XviD 1.2.1 (UTC 2008-12-04)\n\nAudio\nID : 1\nFormat : AC-3\nFormat/Info : Audio Coding 3\nMode extension : CM (complete main)\nCodec ID : 2000\nDuration : 1h 32mn\nBit rate mode : Constant\nBit rate : 128 Kbps\nChannel(s) : 2 channels\nChannel positions : Front: L R\nSampling rate : 48.0 KHz\nBit depth : 16 bits\nCompression mode : Lossy\nStream size : 85.0 MiB (7%)\nAlignment : Aligned on interleaves\nInterleave, duration : 40 ms (1.00 video frame)\nInterleave, preload duration : 512 ms\n\n\nPoster:\n\n &lt;a href=&quot;\nhttp://i.imgur.com/0TuiY.jpg&quot; rel=&quot;nofollow&quot; target=&quot;_NEW&quot;&gt;\nhttp://i.imgur.com/0TuiY.jpg&lt;/a&gt;\n\n\nScreenshots:\n\n &lt;a href=&quot;\nhttp://i.imgur.com/m7bVv.png&quot; rel=&quot;nofollow&quot; target=&quot;_NEW&quot;&gt;\nhttp://i.imgur.com/m7bVv.png&lt;/a&gt;\n\n\nENJOY!","torrent":{"xt":"urn:btih:0ad90b2df32e066bfc007435ba707156c08a3c8f","amp;dn":"Death+of+a+Superhero+2011+DVDRiP+XViD+AC3-ART3MiS+","amp;tr":["udp%3A%2F%2Ftracker.openbittorrent.com%3A80","udp%3A%2F%2Fopen.demonii.com%3A1337","udp%3A%2F%2Ftracker.coppersurfer.tk%3A6969","udp%3A%2F%2Fexodus.desync.com%3A6969"],"infoHash":"0ad90b2df32e066bfc007435ba707156c08a3c8f","infoHashBuffer":{"type":"Buffer","data":[10,217,11,45,243,46,6,107,252,0,116,53,186,112,113,86,192,138,60,143]},"announce":[],"urlList":[]}}